<svg version="1.0" xmlns="http://www.w3.org/2000/svg" width="350.667" height="338.667" viewBox="0 0 263 254"><path d="M101.9 75.8l-43.6 75.7-29.2.3c-16 .1-29.1.6-29 1 0 .4 6.4 11.7 14.2 25.2l14.3 24.5h117.6l14.1-24.2c7.8-13.4 14.4-24.3 14.7-24.3.5 0 14.1 23.3 43.5 74.5 7.6 13.2 14.1 24.4 14.5 24.8.6.7 27.7-44.7 29.5-49.4.3-.9-2.7-7.2-7.8-16-14.7-25.3-76.3-132.3-77.6-134.7-1.1-2.1-.1-4.3 11-23.5 6.7-11.7 13.3-22.9 14.6-24.9 1.2-2.1 2.3-4 2.3-4.3 0-.3-13.4-.5-29.7-.5l-29.8.1-43.6 75.7zm83-62.6c-1.2 2.2-16.6 29-60.2 104.8-11.6 20.1-21.5 37.1-22.2 37.8-.8.9-5.3 1.2-17.8 1l-16.7-.3L107.6 88c21.7-37.7 40.6-70.4 42-72.8l2.5-4.2h34l-1.2 2.2zm23.9 117.1l42 72.7-8.2 14.1c-4.6 7.8-8.6 14.1-9.1 14.1s-7-10.7-14.5-23.9c-7.5-13.1-26.1-45.3-41.3-71.5C162.5 109.5 150 87.5 150 87c0-1 16.3-30 16.7-29.7 0 .1 19 32.9 42.1 73zm-53 33.5c-.1.5-3.8 7-8.2 14.5l-7.8 13.7H35.2l-6.8-11.8c-3.7-6.4-7.6-12.9-8.6-14.5l-1.9-2.7H87c38 0 69 .4 68.8.8z"/></svg>