<?xml version="1.0" standalone="no"?>
<!DOCTYPE svg PUBLIC "-//W3C//DTD SVG 20010904//EN"
 "http://www.w3.org/TR/2001/REC-SVG-20010904/DTD/svg10.dtd">
<svg version="1.0" xmlns="http://www.w3.org/2000/svg"
 width="128.000000pt" height="128.000000pt" viewBox="0 0 128.000000 128.000000"
 preserveAspectRatio="xMidYMid meet">
<metadata>
Created by potrace 1.16, written by Peter Selinger 2001-2019
</metadata>
<g transform="translate(0.000000,128.000000) scale(0.100000,-0.100000)"
fill="" stroke="none">
<path d="M472 1240 c-99 -26 -184 -73 -260 -144 -144 -135 -212 -289 -212
-481 0 -164 55 -304 167 -425 95 -103 241 -188 291 -169 20 7 22 15 22 73 l0
64 -70 4 c-83 4 -113 23 -152 93 -15 27 -41 61 -59 76 -30 24 -33 49 -7 49 28
0 83 -37 106 -72 29 -44 67 -68 109 -68 50 0 68 11 89 55 l21 44 -49 10 c-60
13 -136 51 -165 83 -46 49 -67 116 -68 214 0 84 2 94 31 140 22 35 28 56 23
69 -11 29 -10 64 2 108 8 31 14 37 38 37 15 0 55 -14 89 -31 60 -30 62 -30
142 -19 58 8 102 8 160 0 80 -11 82 -11 142 19 34 17 74 31 89 31 24 0 30 -6
38 -37 12 -44 13 -79 2 -108 -5 -13 1 -34 23 -69 29 -46 31 -56 31 -140 -1
-98 -22 -165 -68 -214 -30 -32 -105 -70 -166 -83 l-50 -10 20 -32 c16 -27 19
-51 19 -155 0 -117 1 -123 22 -131 49 -18 183 59 279 162 155 166 215 408 153
619 -44 149 -179 317 -311 386 -135 71 -321 91 -471 52z"/>
</g>
</svg>
