<?xml version="1.0" standalone="no"?>
<!DOCTYPE svg PUBLIC "-//W3C//DTD SVG 20010904//EN"
 "http://www.w3.org/TR/2001/REC-SVG-20010904/DTD/svg10.dtd">
<svg version="1.0" xmlns="http://www.w3.org/2000/svg"
 width="128.000000pt" height="128.000000pt" viewBox="0 0 128.000000 128.000000"
 preserveAspectRatio="xMidYMid meet">
<metadata>
Created by potrace 1.16, written by Peter Selinger 2001-2019
</metadata>
<g transform="translate(0.000000,128.000000) scale(0.100000,-0.100000)"
fill="" stroke="none">
<path d="M260 1264 c-77 -21 -153 -74 -195 -137 -59 -90 -65 -132 -65 -487 0
-355 6 -397 65 -487 43 -64 119 -117 200 -138 86 -22 664 -22 750 0 124 32
218 126 250 250 22 86 22 664 0 750 -32 124 -126 218 -250 250 -84 21 -673 21
-755 -1z m745 -125 c58 -20 118 -84 136 -144 20 -72 20 -638 0 -710 -20 -66
-80 -126 -146 -146 -72 -20 -638 -20 -710 0 -66 20 -126 80 -146 146 -20 70
-20 638 0 706 26 90 91 143 195 160 87 13 625 4 671 -12z"/>
<path d="M921 1034 c-28 -36 -27 -79 4 -109 50 -51 135 -17 135 54 0 76 -94
112 -139 55z"/>
<path d="M527 955 c-92 -35 -181 -130 -207 -221 -18 -63 -9 -180 19 -237 29
-61 97 -128 158 -159 40 -19 64 -23 143 -23 112 0 163 20 234 91 71 71 91 122
91 234 0 79 -4 103 -23 143 -31 61 -98 129 -159 158 -59 30 -196 37 -256 14z
m212 -135 c143 -73 142 -287 -2 -362 -157 -82 -340 60 -297 230 33 134 174
196 299 132z"/>
</g>
</svg>
