<?xml version="1.0" standalone="no"?>
<!DOCTYPE svg PUBLIC "-//W3C//DTD SVG 20010904//EN"
 "http://www.w3.org/TR/2001/REC-SVG-20010904/DTD/svg10.dtd">
<svg version="1.0" xmlns="http://www.w3.org/2000/svg"
 width="128.000000pt" height="128.000000pt" viewBox="0 0 128.000000 128.000000"
 preserveAspectRatio="xMidYMid meet">
<metadata>
Created by potrace 1.16, written by Peter Selinger 2001-2019
</metadata>
<g transform="translate(0.000000,128.000000) scale(0.100000,-0.100000)"
fill="" stroke="none">
<path d="M133 1259 c-49 -24 -99 -77 -119 -125 -11 -27 -14 -126 -14 -494 0
-505 -1 -494 61 -565 67 -76 56 -75 582 -75 522 0 504 -2 573 72 67 71 65 48
62 577 l-3 479 -30 43 c-17 24 -50 57 -74 74 l-43 30 -476 3 c-468 2 -478 2
-519 -19z m173 -128 c77 -35 95 -132 35 -192 -69 -68 -176 -37 -206 59 -4 15
0 41 10 69 14 36 26 49 59 64 50 23 52 23 102 0z m685 -316 c121 -43 149 -132
149 -469 l0 -196 -104 0 -105 0 -3 208 c-3 187 -5 210 -23 242 -26 44 -69 58
-125 41 -68 -20 -74 -43 -80 -286 l-5 -210 -100 0 -100 0 0 335 0 335 95 0 95
0 3 -43 3 -43 21 27 c51 65 183 92 279 59z m-633 -332 l2 -333 -105 0 -105 0
0 328 c0 181 3 332 7 336 4 4 50 5 103 4 l95 -3 3 -332z"/>
</g>
</svg>
