<svg version="1.0" xmlns="http://www.w3.org/2000/svg" width="170.667" height="170.667" viewBox="0 0 128 128"><path d="M47.2 4c-9.9 2.6-18.4 7.3-26 14.4C6.8 31.9 0 47.3 0 66.5 0 82.9 5.5 96.9 16.7 109c9.5 10.3 24.1 18.8 29.1 16.9 2-.7 2.2-1.5 2.2-7.3v-6.4l-7-.4c-8.3-.4-11.3-2.3-15.2-9.3-1.5-2.7-4.1-6.1-5.9-7.6-3-2.4-3.3-4.9-.7-4.9 2.8 0 8.3 3.7 10.6 7.2 2.9 4.4 6.7 6.8 10.9 6.8 5 0 6.8-1.1 8.9-5.5l2.1-4.4-4.9-1c-6-1.3-13.6-5.1-16.5-8.3-4.6-4.9-6.7-11.6-6.8-21.4 0-8.4.2-9.4 3.1-14 2.2-3.5 2.8-5.6 2.3-6.9-1.1-2.9-1-6.4.2-10.8.8-3.1 1.4-3.7 3.8-3.7 1.5 0 5.5 1.4 8.9 3.1 6 3 6.2 3 14.2 1.9 5.8-.8 10.2-.8 16 0 8 1.1 8.2 1.1 14.2-1.9 3.4-1.7 7.4-3.1 8.9-3.1 2.4 0 3 .6 3.8 3.7 1.2 4.4 1.3 7.9.2 10.8-.5 1.3.1 3.4 2.3 6.9 2.9 4.6 3.1 5.6 3.1 14-.1 9.8-2.2 16.5-6.8 21.4-3 3.2-10.5 7-16.6 8.3l-5 1 2 3.2c1.6 2.7 1.9 5.1 1.9 15.5 0 11.7.1 12.3 2.2 13.1 4.9 1.8 18.3-5.9 27.9-16.2 15.5-16.6 21.5-40.8 15.3-61.9-4.4-14.9-17.9-31.7-31.1-38.6C80.8 2.1 62.2.1 47.2 4z"/></svg>