<svg version="1.0" xmlns="http://www.w3.org/2000/svg" width="170.667" height="170.667" viewBox="0 0 128 128"><path d="M26 1.6C18.3 3.7 10.7 9 6.5 15.3.6 24.3 0 28.5 0 64s.6 39.7 6.5 48.7c4.3 6.4 11.9 11.7 20 13.8 8.6 2.2 66.4 2.2 75 0 12.4-3.2 21.8-12.6 25-25 2.2-8.6 2.2-66.4 0-75-3.2-12.4-12.6-21.8-25-25C93.1-.6 34.2-.6 26 1.6zm74.5 12.5c5.8 2 11.8 8.4 13.6 14.4 2 7.2 2 63.8 0 71-2 6.6-8 12.6-14.6 14.6-7.2 2-63.8 2-71 0-6.6-2-12.6-8-14.6-14.6-2-7-2-63.8 0-70.6 2.6-9 9.1-14.3 19.5-16 8.7-1.3 62.5-.4 67.1 1.2z"/><path d="M92.1 24.6c-2.8 3.6-2.7 7.9.4 10.9 5 5.1 13.5 1.7 13.5-5.4 0-7.6-9.4-11.2-13.9-5.5zm-39.4 7.9C43.5 36 34.6 45.5 32 54.6c-1.8 6.3-.9 18 1.9 23.7 2.9 6.1 9.7 12.8 15.8 15.9 4 1.9 6.4 2.3 14.3 2.3 11.2 0 16.3-2 23.4-9.1 7.1-7.1 9.1-12.2 9.1-23.4 0-7.9-.4-10.3-2.3-14.3-3.1-6.1-9.8-12.9-15.9-15.8-5.9-3-19.6-3.7-25.6-1.4zM73.9 46c14.3 7.3 14.2 28.7-.2 36.2-15.7 8.2-34-6-29.7-23C47.3 45.8 61.4 39.6 73.9 46z"/></svg>