<svg version="1.0" xmlns="http://www.w3.org/2000/svg" width="170.667" height="170.667" viewBox="0 0 128 128"><path d="M13.3 2.1C8.4 4.5 3.4 9.8 1.4 14.6.3 17.3 0 27.2 0 64c0 50.5-.1 49.4 6.1 56.5 6.7 7.6 5.6 7.5 58.2 7.5 52.2 0 50.4.2 57.3-7.2 6.7-7.1 6.5-4.8 6.2-57.7l-.3-47.9-3-4.3c-1.7-2.4-5-5.7-7.4-7.4l-4.3-3L65.2.2C18.4 0 17.4 0 13.3 2.1zm17.3 12.8c7.7 3.5 9.5 13.2 3.5 19.2-6.9 6.8-17.6 3.7-20.6-5.9-.4-1.5 0-4.1 1-6.9 1.4-3.6 2.6-4.9 5.9-6.4 5-2.3 5.2-2.3 10.2 0zm68.5 31.6c12.1 4.3 14.9 13.2 14.9 46.9V113H93.1l-.3-20.8c-.3-18.7-.5-21-2.3-24.2-2.6-4.4-6.9-5.8-12.5-4.1-6.8 2-7.4 4.3-8 28.6l-.5 21h-20v-67h19l.3 4.3.3 4.3 2.1-2.7c5.1-6.5 18.3-9.2 27.9-5.9zM35.8 79.7L36 113H15V80.2c0-18.1.3-33.2.7-33.6.4-.4 5-.5 10.3-.4l9.5.3.3 33.2z"/></svg>